<svg width="24" height="24" viewBox="0 0 24 24" fill="none" xmlns="http://www.w3.org/2000/svg">
<path d="M13.3254 11.9992L23.7249 22.3988C24.0911 22.7649 24.0911 23.3585 23.7249 23.7246C23.3588 24.0907 22.7652 24.0908 22.3991 23.7246L11.9995 13.3251L1.59997 23.7246C1.23383 24.0908 0.64021 24.0908 0.274117 23.7246C-0.0919764 23.3585 -0.0920233 22.7649 0.274117 22.3988L10.6736 11.9992L0.274117 1.59967C-0.0920233 1.23353 -0.0920233 0.63991 0.274117 0.273817C0.457163 0.0907707 0.697116 -0.000728607 0.937068 -0.000728607C1.17702 -0.000728607 1.41693 0.0907707 1.60002 0.273817L11.9995 10.6733L22.399 0.273817C22.5821 0.0907707 22.822 -0.000728607 23.062 -0.000728607C23.3019 -0.000728607 23.5418 0.0907707 23.7249 0.273817C24.0911 0.639957 24.0911 1.23358 23.7249 1.59967L13.3254 11.9992Z" fill="#0F175A"/>
</svg>
